# xmcd
# 
# Track frame offsets:
#     150
#     14342
#     30432
#     40832
#     63375
#     73428
#     85436
#     97746
#     114286
#     126151
# 
# Disc length: 1958
# 
# Revision: 1
# Processed by: cddbd v1.5.2PL0 Copyright (c) Steve Scherf et al.
# Submitted via: fre:ac v1.0.17
# 
DISCID=7e07a40a
DTITLE=Frank Sinatra - Sinatra [CD2]
DYEAR=2009
DGENRE=Jazz
TTITLE0=That's Life
TTITLE1=Something
TTITLE2=Then Suddenly Love
TTITLE3=Little Green Apples
TTITLE4=It's A Wonderful World
TTITLE5=Witchcraft
TTITLE6=Pocket Full Of Miracles
TTITLE7=Nancy
TTITLE8=Star!
TTITLE9=My Way
EXTD=YEAR: 2009
EXTT0=
EXTT1=
EXTT2=
EXTT3=
EXTT4=
EXTT5=
EXTT6=
EXTT7=
EXTT8=
EXTT9=
PLAYORDER=
